<svg width="90" height="93" viewBox="0 0 90 93" fill="none" xmlns="http://www.w3.org/2000/svg">
<path d="M53.6319 83.6765C73.6284 79.0498 85.938 59.7126 81.1262 40.4856C76.3144 21.2585 56.2033 9.42257 36.2068 14.0492C16.2103 18.6759 3.90074 38.0131 8.71255 57.2402C13.5244 76.4672 33.6354 88.3031 53.6319 83.6765Z" fill="#006900" stroke="#263238" stroke-width="0.969111" stroke-miterlimit="10"/>
<path opacity="0.3" d="M53.6319 83.6765C73.6284 79.0498 85.938 59.7126 81.1262 40.4856C76.3144 21.2585 56.2033 9.42257 36.2068 14.0492C16.2103 18.6759 3.90074 38.0131 8.71255 57.2402C13.5244 76.4672 33.6354 88.3031 53.6319 83.6765Z" fill="white" stroke="#263238" stroke-width="0.969111" stroke-miterlimit="10"/>
<path d="M76.7287 41.7348C81.7455 28.7296 74.3965 14.1155 60.3144 9.0934C46.2322 4.07127 30.7496 10.5428 25.7329 23.548C20.7161 36.5533 28.0651 51.1673 42.1472 56.1894C56.2293 61.2116 71.712 54.74 76.7287 41.7348Z" fill="#263238" stroke="#263238" stroke-width="0.969111" stroke-miterlimit="10"/>
<path d="M76.532 27.6648C77.7633 31.8959 77.683 36.3806 76.301 40.5684" stroke="white" stroke-width="0.726833" stroke-linecap="round" stroke-linejoin="round"/>
<path d="M74.6492 43.9586C74.6492 43.9586 72.9972 45.9996 72.0558 47.1354" stroke="white" stroke-width="0.726833" stroke-linecap="round" stroke-linejoin="round"/>
<path d="M36.0327 16.7936C36.0327 16.7936 32.2669 21.0635 34.6205 26.3069" stroke="white" stroke-width="0.726833" stroke-linecap="round" stroke-linejoin="round"/>
<path d="M44.9227 84.6765C51.785 84.6882 58.5157 82.8671 64.3645 79.416C60.0214 75.5645 48.7152 65.9743 43.3862 65.5559C37.8086 65.1203 21.5287 70.1332 16.3152 71.7985C19.8074 75.8334 24.1811 79.0791 29.1254 81.3048C34.0698 83.5306 39.4634 84.6817 44.9227 84.6765Z" fill="white" stroke="#263238" stroke-width="0.969111" stroke-miterlimit="10"/>
<path d="M50.421 70.0734C50.5719 69.6464 50.7051 69.2194 50.8472 68.8693C47.9874 67.0418 45.2963 65.7096 43.3868 65.5559C41.0684 65.5329 38.7561 65.7882 36.5035 66.3159C35.5177 68.8779 35.2601 71.4398 34.4608 75.8036C33.3773 81.7046 35.0026 83.4382 39.5144 81.1837C44.0262 78.9292 48.618 75.2742 50.421 70.0734Z" fill="white" stroke="#263238" stroke-width="0.969111" stroke-miterlimit="10"/>
<path d="M39.5945 59.1339C39.5945 59.1339 40.678 61.0468 39.4168 65.5558C38.1556 70.0649 34.976 77.5116 36.4504 78.9292C37.9247 80.3468 46.8152 73.8907 47.1704 69.0316C47.5257 64.1724 47.5346 54.4541 47.5346 54.4541L39.5945 59.1339Z" fill="white"/>
<mask id="mask0_401_229" style="mask-type:luminance" maskUnits="userSpaceOnUse" x="36" y="54" width="12" height="26">
<path d="M39.5945 59.1339C39.5945 59.1339 40.678 61.0468 39.4168 65.5558C38.1556 70.0649 34.976 77.5116 36.4504 78.9292C37.9247 80.3468 46.8152 73.8907 47.1704 69.0316C47.5257 64.1724 47.5346 54.4541 47.5346 54.4541L39.5945 59.1339Z" fill="white"/>
</mask>
<g mask="url(#mask0_401_229)">
<g style="mix-blend-mode:multiply" opacity="0.5">
<path d="M40.0118 62.0544L45.7137 66.3243L45.2786 73.1562C46.2892 71.9699 46.9433 70.5407 47.1703 69.0229C47.5345 64.1637 47.5345 54.4454 47.5345 54.4454L39.5944 59.1252C39.9803 60.0542 40.1236 61.0599 40.0118 62.0544Z" fill="#006900"/>
</g>
</g>
<path d="M39.5945 59.1339C39.5945 59.1339 40.678 61.0468 39.4168 65.5558C38.1556 70.0649 34.976 77.5116 36.4504 78.9292C37.9247 80.3468 46.8152 73.8907 47.1704 69.0316C47.5257 64.1724 47.5346 54.4541 47.5346 54.4541L39.5945 59.1339Z" stroke="#263238" stroke-width="0.969111" stroke-miterlimit="10"/>
<path d="M30.5435 37.7929C30.5435 37.7929 29.2823 34.6674 27.657 36.9389C26.0317 39.2105 28.0123 41.9689 28.9182 41.9689C29.8241 41.9689 30.5435 37.7929 30.5435 37.7929Z" fill="white" stroke="#263238" stroke-width="0.969111" stroke-miterlimit="10"/>
<path d="M34.7183 27.7245C34.7183 27.7245 29.4871 37.6136 28.2259 44.3857C26.9647 51.1578 32.1959 61.3885 37.4272 61.3885C42.6584 61.3885 50.7495 53.5831 50.7495 53.5831C50.7495 53.5831 58.3255 53.7539 59.409 51.3286C60.4926 48.9033 59.2314 46.9904 57.2419 46.9904H53.2719C53.2719 46.9904 52.1883 47.5113 52.7301 42.6521C53.2719 37.793 54.8972 35.5385 54.8972 35.5385C54.8972 35.5385 41.2018 36.5718 34.7183 27.7245Z" fill="white"/>
<mask id="mask1_401_229" style="mask-type:luminance" maskUnits="userSpaceOnUse" x="28" y="27" width="32" height="35">
<path d="M34.7183 27.7245C34.7183 27.7245 29.4871 37.6136 28.2259 44.3857C26.9647 51.1578 32.1959 61.3885 37.4272 61.3885C42.6584 61.3885 50.7495 53.5831 50.7495 53.5831C50.7495 53.5831 58.3255 53.7539 59.409 51.3286C60.4926 48.9033 59.2314 46.9904 57.2419 46.9904H53.2719C53.2719 46.9904 52.1883 47.5113 52.7301 42.6521C53.2719 37.793 54.8972 35.5385 54.8972 35.5385C54.8972 35.5385 41.2018 36.5718 34.7183 27.7245Z" fill="white"/>
</mask>
<g mask="url(#mask1_401_229)">
<g style="mix-blend-mode:multiply" opacity="0.5">
<path d="M48.5911 50.449C47.4934 53.1337 45.6878 55.4975 43.3519 57.3077C41.0161 59.118 38.2303 60.3125 35.2687 60.7736H35.2155C35.8983 61.157 36.6719 61.3657 37.4625 61.3799C42.6937 61.3799 50.7848 53.5746 50.7848 53.5746C50.7848 53.5746 58.3608 53.7453 59.4444 51.32C60.5279 48.8947 59.2667 46.9818 57.2773 46.9818H53.3072C53.3072 46.9818 52.2236 47.5028 52.7654 42.6436C53.3072 37.7845 54.9325 35.53 54.9325 35.53C54.9325 35.53 54.0444 35.5897 52.5789 35.53H52.5167" fill="#006900"/>
</g>
</g>
<path d="M34.7183 27.7245C34.7183 27.7245 29.4871 37.6136 28.2259 44.3857C26.9647 51.1578 32.1959 61.3885 37.4272 61.3885C42.6584 61.3885 50.7495 53.5831 50.7495 53.5831C50.7495 53.5831 58.3255 53.7539 59.409 51.3286C60.4926 48.9033 59.2314 46.9904 57.2419 46.9904H53.2719C53.2719 46.9904 52.1883 47.5113 52.7301 42.6521C53.2719 37.793 54.8972 35.5385 54.8972 35.5385C54.8972 35.5385 41.2018 36.5718 34.7183 27.7245Z" stroke="#263238" stroke-width="0.969111" stroke-miterlimit="10"/>
<path d="M35.6778 38.7921C35.4647 39.6974 35.0206 40.372 34.692 40.3037C34.3634 40.2354 34.2745 39.4497 34.4877 38.5274C34.7008 37.6051 35.1449 36.9475 35.4735 37.0159C35.8021 37.0842 35.8732 37.8784 35.6778 38.7921Z" fill="#263238"/>
<path d="M44.1595 42.4301C43.9463 43.3353 43.5023 44.0185 43.1737 43.9416C42.845 43.8648 42.7562 43.0876 42.9694 42.1739C43.1825 41.2601 43.6266 40.5855 43.9552 40.6623C44.2839 40.7392 44.3727 41.5249 44.1595 42.4301Z" fill="#263238"/>
<path d="M37.0629 41.0892C37.0629 41.0892 33.0929 43.8647 33.6347 44.5564C35.1164 45.7816 36.9373 46.5651 38.8748 46.8109C40.5001 46.8109 40.1359 44.9065 40.1359 44.9065" stroke="#263238" stroke-width="0.969111" stroke-linecap="round" stroke-linejoin="round"/>
<path d="M34.1764 49.074C36.1612 50.1142 38.4324 50.5379 40.6777 50.2867C41.6042 50.1993 42.496 49.9023 43.2802 49.4199C44.0644 48.9375 44.7187 48.2834 45.1895 47.5112" stroke="#263238" stroke-width="0.969111" stroke-linecap="round" stroke-linejoin="round"/>
<path d="M34.5405 34.6674C34.5405 34.6674 35.6241 32.4129 37.7912 35.0175" stroke="#263238" stroke-width="0.969111" stroke-linecap="round" stroke-linejoin="round"/>
<path d="M43.7418 37.7929C43.7418 37.7929 47.3566 36.7511 47.3566 40.2182" stroke="#263238" stroke-width="0.969111" stroke-linecap="round" stroke-linejoin="round"/>
</svg>
