<svg width="86" height="83" viewBox="0 0 86 83" fill="none" xmlns="http://www.w3.org/2000/svg">
<path d="M48.8343 76.4767C69.1289 73.2672 82.875 54.8464 79.5371 35.3327C76.1992 15.819 57.0412 2.60186 36.7466 5.81134C16.452 9.02082 2.70592 27.4416 6.04384 46.9553C9.38176 66.469 28.5397 79.6862 48.8343 76.4767Z" fill="#006900" stroke="#263238" stroke-width="0.969111" stroke-miterlimit="10"/>
<path opacity="0.3" d="M48.8343 76.4767C69.1289 73.2672 82.875 54.8464 79.5371 35.3327C76.1992 15.819 57.0412 2.60186 36.7466 5.81134C16.452 9.02082 2.70592 27.4416 6.04384 46.9553C9.38176 66.469 28.5397 79.6862 48.8343 76.4767Z" fill="white" stroke="#263238" stroke-width="0.969111" stroke-miterlimit="10"/>
<path d="M17.1661 59.3052C16.5266 61.7562 13.6135 61.4146 14.5016 64.4291C20.4525 71.1272 28.7633 75.4797 37.8434 76.6536C46.9235 77.8274 56.1349 75.7401 63.7143 70.7913C66.3788 67.7596 67.9775 64.5743 68.0485 62.0124C68.2883 54.1899 59.691 48.3487 59.2291 44.5826C58.7673 40.8165 62.4798 32.3024 62.4798 32.3024C62.4798 32.3024 68.9811 31.4057 71.308 25.8292C73.635 20.2527 64.789 7.7077 56.8844 3.90749C48.9798 0.107275 35.7463 3.46343 29.245 12.6181C22.7437 21.7728 30.6394 29.8173 26.4562 34.0616C22.273 38.3058 11.3576 38.5279 10.1941 47.0165C9.03061 55.505 17.8589 56.6237 17.1661 59.3052Z" fill="#263238" stroke="#263238" stroke-width="0.969111" stroke-miterlimit="10"/>
<path d="M56.9107 12.4216C56.9107 12.4216 59.2643 17.964 50.0986 21.2347C40.9328 24.5055 33.8631 22.7463 31.5006 28.5363C29.1381 34.3263 30.9766 38.3656 31.243 41.346C31.5094 44.3264 24.1377 43.8567 19.697 47.6398C15.2562 51.423 24.1377 55.949 26.5091 58.4683C28.8805 60.9875 28.3387 64.7621 24.1466 66.026" stroke="white" stroke-width="0.726833" stroke-linecap="round" stroke-linejoin="round"/>
<path d="M29.1471 24.0101C29.1471 24.0101 32.5487 15.9485 37.7889 14.6846C43.029 13.4207 48.7931 17.2039 52.7187 13.6769C56.6444 10.15 55.8628 7.63929 52.9763 5.6239" stroke="white" stroke-width="0.726833" stroke-linecap="round" stroke-linejoin="round"/>
<path d="M60.8364 15.6924C60.8364 15.6924 70.0111 21.4909 66.867 26.0256C63.7229 30.5602 62.6749 25.0179 62.6749 25.0179" stroke="white" stroke-width="0.726833" stroke-linecap="round" stroke-linejoin="round"/>
<path d="M22.592 71.2182C29.5489 75.5413 37.8069 77.5091 46.0582 76.8099C54.3094 76.1107 62.0823 72.7845 68.1455 67.3582C65.4035 64.9362 62.4957 62.6938 59.4416 60.6459C53.6331 56.8457 48.988 55.522 45.7374 55.727C45.7374 55.727 43.1795 56.8457 38.3035 61.312C35.1239 64.2241 27.4858 68.5538 22.592 71.2182Z" fill="white" stroke="#263238" stroke-width="0.969111" stroke-miterlimit="10"/>
<path d="M54.3259 61.8672C54.3287 60.3812 54.1073 58.9026 53.6687 57.4777C51.2092 56.2956 48.4864 55.7093 45.7375 55.7698C45.7375 55.7698 43.7036 56.6237 39.8223 60.0397C39.7403 60.6714 39.6988 61.3074 39.698 61.944C39.698 67.8109 42.9664 72.559 47.0075 72.559C51.0486 72.559 54.3259 67.734 54.3259 61.8672Z" fill="white" stroke="#263238" stroke-width="0.969111" stroke-miterlimit="10"/>
<path d="M43.8728 44.3348C43.8728 44.3348 43.8728 50.5945 43.18 56.4016C42.4873 62.2086 43.4109 68.4598 47.8251 68.9038C52.2392 69.3479 51.5376 59.3051 51.0757 55.2829C50.8017 52.7591 50.8017 50.2147 51.0757 47.691L43.8728 44.3348Z" fill="white"/>
<mask id="mask0_503_197" style="mask-type:luminance" maskUnits="userSpaceOnUse" x="42" y="44" width="10" height="25">
<path d="M43.8728 44.3348C43.8728 44.3348 43.8728 50.5945 43.18 56.4016C42.4873 62.2086 43.4109 68.4598 47.8251 68.9038C52.2392 69.3479 51.5376 59.3051 51.0757 55.2829C50.8017 52.7591 50.8017 50.2147 51.0757 47.691L43.8728 44.3348Z" fill="white"/>
</mask>
<g mask="url(#mask0_503_197)">
<g style="mix-blend-mode:multiply" opacity="0.5">
<path d="M43.0452 57.7503L50.8877 50.4403C50.8877 50.2097 50.8877 49.9877 50.8877 49.7827L49.289 46.9219L43.8446 44.3599C43.8446 44.3599 43.8446 50.6196 43.1518 56.4267C43.1252 56.8451 43.0808 57.2977 43.0452 57.7503Z" fill="#006900"/>
</g>
</g>
<path d="M43.8728 44.3348C43.8728 44.3348 43.8728 50.5945 43.18 56.4016C42.4873 62.2086 43.4109 68.4598 47.8251 68.9038C52.2392 69.3479 51.5376 59.3051 51.0757 55.2829C50.8017 52.7591 50.8017 50.2147 51.0757 47.691L43.8728 44.3348Z" stroke="#263238" stroke-width="0.969111" stroke-miterlimit="10"/>
<path d="M59.6724 16.4183C59.6724 16.4183 60.1342 19.3218 52.2385 22.9C44.3428 26.4782 40.3906 29.3732 39.6978 32.7208C39.005 36.0684 38.7652 37.4177 38.7652 37.4177C38.7652 37.4177 37.1399 34.2836 34.1202 35.8463C31.1005 37.4091 33.8893 43.4468 36.6781 43.6688C39.4669 43.8908 40.1596 42.9942 40.1596 42.9942C40.1596 42.9942 49.2188 51.7048 54.5566 51.7048C59.8944 51.7048 61.9905 46.7944 63.154 38.0411C64.2819 29.6379 59.6724 16.4183 59.6724 16.4183Z" fill="white"/>
<mask id="mask1_503_197" style="mask-type:luminance" maskUnits="userSpaceOnUse" x="32" y="16" width="32" height="36">
<path d="M59.6724 16.4183C59.6724 16.4183 60.1342 19.3218 52.2385 22.9C44.3428 26.4782 40.3906 29.3732 39.6978 32.7208C39.005 36.0684 38.7652 37.4177 38.7652 37.4177C38.7652 37.4177 37.1399 34.2836 34.1202 35.8463C31.1005 37.4091 33.8893 43.4468 36.6781 43.6688C39.4669 43.8908 40.1596 42.9942 40.1596 42.9942C40.1596 42.9942 49.2188 51.7048 54.5566 51.7048C59.8944 51.7048 61.9905 46.7944 63.154 38.0411C64.2819 29.6379 59.6724 16.4183 59.6724 16.4183Z" fill="white"/>
</mask>
<g mask="url(#mask1_503_197)">
<g style="mix-blend-mode:multiply" opacity="0.5">
<path d="M42.2379 34.3347C42.5196 31.5217 43.5605 28.8282 45.2576 26.5208C41.9448 28.6045 40.1419 30.5687 39.6978 32.7207C38.9962 36.0769 38.7652 37.4176 38.7652 37.4176C38.7652 37.4176 37.1399 34.2835 34.1202 35.8463C31.1005 37.4091 33.8893 43.4467 36.6781 43.6687C39.4669 43.8908 40.1596 42.9941 40.1596 42.9941C40.1596 42.9941 49.2188 51.7047 54.5566 51.7047C52.972 50.9475 51.4821 50.0192 50.1159 48.9378C46.954 46.7175 41.9804 39.8856 42.2379 34.3347Z" fill="#006900"/>
</g>
</g>
<path d="M59.6724 16.4183C59.6724 16.4183 60.1342 19.3218 52.2385 22.9C44.3428 26.4782 40.3906 29.3732 39.6978 32.7208C39.005 36.0684 38.7652 37.4177 38.7652 37.4177C38.7652 37.4177 37.1399 34.2836 34.1202 35.8463C31.1005 37.4091 33.8893 43.4468 36.6781 43.6688C39.4669 43.8908 40.1596 42.9942 40.1596 42.9942C40.1596 42.9942 49.2188 51.7048 54.5566 51.7048C59.8944 51.7048 61.9905 46.7944 63.154 38.0411C64.2819 29.6379 59.6724 16.4183 59.6724 16.4183Z" stroke="#263238" stroke-width="0.969111" stroke-miterlimit="10"/>
<path d="M58.0651 29.9709C57.8015 30.6633 57.6921 31.4012 57.7441 32.1368C57.7961 32.8723 58.0084 33.5892 58.3671 34.2408C59.5839 36.4356 60.1967 37.1615 59.7438 37.7507C59.6138 37.9533 59.4437 38.1292 59.243 38.2685C59.0423 38.4078 58.815 38.5076 58.5741 38.5623C58.3332 38.6171 58.0835 38.6256 57.8392 38.5874C57.5949 38.5493 57.3608 38.4652 57.1503 38.34" stroke="#263238" stroke-width="0.969111" stroke-linecap="round" stroke-linejoin="round"/>
<path d="M57.1506 43.5919C57.1506 43.5919 52.7098 45.2059 51.2089 42.123" stroke="#263238" stroke-width="0.969111" stroke-linecap="round" stroke-linejoin="round"/>
<path d="M52.7364 33.2673C52.7364 34.1981 52.461 34.9752 52.1235 34.9752C51.786 34.9752 51.5196 34.2237 51.5196 33.2673C51.5196 32.3108 51.786 31.5593 52.1235 31.5593C52.461 31.5593 52.7364 32.3364 52.7364 33.2673Z" fill="#263238"/>
<path d="M60.1964 33.0453C60.5349 33.0453 60.8093 32.2921 60.8093 31.3629C60.8093 30.4338 60.5349 29.6806 60.1964 29.6806C59.858 29.6806 59.5836 30.4338 59.5836 31.3629C59.5836 32.2921 59.858 33.0453 60.1964 33.0453Z" fill="#263238"/>
<path d="M48.3222 28.3654C48.3222 28.3654 49.2104 26.017 52.8873 26.461" stroke="#263238" stroke-width="0.969111" stroke-linecap="round" stroke-linejoin="round"/>
<path d="M58.2161 26.017C58.2161 26.017 59.2818 23.5319 61.5644 25.5814" stroke="#263238" stroke-width="0.969111" stroke-linecap="round" stroke-linejoin="round"/>
</svg>
